<?xml version="1.0" encoding="utf-8"?>
<!-- Svg Vector Icons : http://www.onlinewebfonts.com/icon -->
<!DOCTYPE svg PUBLIC "-//W3C//DTD SVG 1.1//EN" "http://www.w3.org/Graphics/SVG/1.1/DTD/svg11.dtd">
<svg version="1.1" xmlns="http://www.w3.org/2000/svg" xmlns:xlink="http://www.w3.org/1999/xlink" x="0px" y="0px" viewBox="0 0 1000 1000" enable-background="new 0 0 1000 1000" xml:space="preserve">
<metadata> Svg Vector Icons : http://www.onlinewebfonts.com/icon </metadata>
<g transform="translate(0, 0) scale(1.0)"><path fill="#ffffff" d="M576,497.6l372.9,377.1c32.5,32.5,53.1,64.4,20.7,96.9c-32.5,32.5-64.5,11.8-96.9-20.7L508,569.8L124.4,953.4c-32.7,32.7-65.1,53.4-97.9,20.7c-32.7-32.7-12.1-65.1,20.7-97.9l375.3-379.5L49.6,127.9C17.1,95.4-3.6,63.4,28.9,31c32.5-32.5,64.5-11.8,96.9,20.6l381.2,364.7L876.8,46.6c32.7-32.7,65.1-53.4,97.9-20.7c32.7,32.7,7.9,65.1-24.8,97.9L576,497.6z"/></g>
</svg>