<svg xmlns="http://www.w3.org/2000/svg" viewBox="0 0 1000 1000" fill="#fff"><path d="M474.92 9.94c-102.2 6.8-189.74 38.4-269.23 97.45-24.16 17.96-67.93 60.08-87.33 84.03-56.78 70.4-92.7 153.8-105.3 245.7-3.72 27.25-4.13 93.32-.83 119.75 11.57 90 44.8 172.18 97.67 240.94 20.23 26.22 61.94 68.34 87.33 88.36 110.87 86.7 253.33 121.6 392.28 96C669.6 967.3 744.77 932.63 808.36 881c24.78-20.03 64.62-61.32 83-85.9 46.25-61.73 76.6-130.48 90.43-205.22 25.6-138.95-9.3-281.4-96-392.28-20.03-25.4-62.14-67.1-88.37-87.33C728.87 57.63 643 22.74 557.52 13.04c-21.05-2.5-66.68-4.14-82.58-3.1zm92.9 25.8C733.2 59.07 875.87 172.62 937.2 329.54c42.33 107.98 42.33 233.1 0 341.08-47.5 121.4-145.56 219.47-266.96 266.96-107.98 42.33-233.1 42.33-341.08 0C189.8 883.06 83.47 763.94 45.27 619c-19.6-74.74-19.6-163.1 0-237.85C66.75 299.6 107.42 229.2 168.12 168.5 274.65 61.96 417.53 14.48 567.83 35.74zm-242.17 290.3l-7.64 7.84 166.2 166.2L318 666.28l7.64 7.85 7.85 7.64 166.2-166.2 166.2 166.2 7.85-7.64 7.64-7.85-166.2-166.2 166.2-166.2-7.64-7.84-7.85-7.64-166.2 166.2-166.2-166.2-7.84 7.64z"/></svg>