<svg xmlns="http://www.w3.org/2000/svg" viewBox="0 0 1000 1000"><path d="M989.7 193c0-.6.2-1.2.2-1.9 0-96.1-219.3-174-489.9-174S10.1 95 10.1 191.2c0 .6.1 1.2.1 1.9l-.2.2v146.9C90.7 408 279.7 455.6 500 455.6S909.3 408 990 340.1V193.2c-.1 0-.2-.1-.3-.2zm-9.8 282.4c-6.2-3.5-13.9-3.4-20.1.3-95.3 58-271.5 94.1-459.8 94.1s-364.5-36-459.8-94.1c-6.1-3.7-13.8-3.9-20.1-.3-6.3 3.5-10.1 10.1-10.1 17.3v101.6c0 6.2 2.9 12 7.8 15.8 87 66.3 276.3 109.2 482.2 109.2s395.2-42.9 482.2-109.2c4.9-3.8 7.8-9.6 7.8-15.8V492.7c0-7.2-3.9-13.8-10.1-17.3zm0 263.7c-6.2-3.5-13.9-3.4-20.1.3-95.3 58-271.5 94.1-459.8 94.1s-364.5-36-459.8-94.1c-6.1-3.7-13.8-3.9-20.1-.3-6.3 3.5-10.1 10.1-10.1 17.3V858c0 6.2 2.9 12 7.8 15.8C104.8 940.1 294.1 983 500 983s395.2-42.9 482.2-109.2c4.9-3.8 7.8-9.6 7.8-15.8V756.4c0-7.2-3.9-13.8-10.1-17.3z" transform="matrix(.7 0 0 .7 150 150)" fill="#fff"/></svg>