<svg xmlns="http://www.w3.org/2000/svg" width="508.33" height="508.36" fill="#fff"><path d="M411.6 250.255l-30.827-12.618c-4.466-1.835-9.625-1.845-14.107-.037L261.17 280.157a18.92 18.92 0 0 1-14.004 0l-105.5-42.555c-4.47-1.808-9.638-1.798-14.107.037l-30.825 12.618c-4.47 1.835-4.45 7.426.034 9.238l150.397 60.667c4.44 1.798 9.564 1.798 14.004 0l150.4-60.667c4.487-1.815 4.503-7.405.03-9.24zm0 77.78l-30.827-12.627a18.94 18.94 0 0 0-14.107-.037L261.17 357.926c-4.44 1.798-9.564 1.798-14.004 0l-105.5-42.555a18.93 18.93 0 0 0-14.107.037l-30.825 12.627c-4.47 1.826-4.45 7.417.034 9.23l150.397 60.676c4.44 1.798 9.564 1.798 14.004 0l150.4-60.676c4.487-1.812 4.503-7.403.03-9.23zm0-156.24l-149.232-61.13a21.83 21.83 0 0 0-16.382 0l-149.23 61.13c-4.482 1.83-4.46 7.42.024 9.238l150.387 60.667a18.87 18.87 0 0 0 14.01 0l150.395-60.667c4.487-1.82 4.498-7.407.03-9.238z"/><path d="M411.6 171.797l-149.232-61.13c-2.637-1.08-5.476-1.605-8.327-1.586v133.96c2.44.014 4.878-.424 7.135-1.34l150.395-60.667c4.487-1.82 4.498-7.407.03-9.238z"/></svg>