<svg xmlns="http://www.w3.org/2000/svg" viewBox="0 0 1000 1000" xmlns:v="https://vecta.io/nano"><path d="M97.23 13.73c-37.52 8.9-71 40.27-82.45 76.94-2.97 9.96-4.24 19.92-4.24 34.55 0 33.7 11.45 59.98 36.46 83.3 46.42 42.82 118.27 39.85 160.87-6.78 19.92-21.83 29.67-47.27 29.67-77.58 0-43.88-24.8-83.3-64.22-101.95-25.22-12.08-50.44-14.84-76.1-8.48zm381.95-1.9c-12.5 2.12-32.43 9.96-43.88 17.38-60.62 39.2-69.3 125.05-17.8 176.35 23.95 23.74 55.75 35.4 90.08 33.07 98.77-7 143.3-124.84 73.55-194.58-15.26-15.26-36.88-27.13-57-31.37-10.8-2.34-33.92-2.76-44.94-.85zm369.44 1.47c-30.3 7.63-60.2 30.95-74.18 57.65-38.8 73.76 10.4 161.94 93.7 167.66 56.17 3.82 106.83-35.4 118.7-91.57 1.7-8.27 3.18-18.23 3.18-22.26 0-13.35-6.15-36.88-13.57-51.93-12.5-25.22-34.76-44.94-62.1-55.32-17.6-6.78-48.55-8.68-65.72-4.23zM474.94 386.78c-40.7 8.7-77.37 43.88-87.96 84.57-6.78 26.5-2.97 57.44 9.96 82.45 9.33 17.6 33.28 41.12 50.66 49.8 14.4 7 37.73 12.93 51.72 12.93 28.83 0 58.92-12.93 80.75-34.76 23.53-23.53 34.76-49.8 34.76-81.82 0-31.8-11.02-57.44-34.97-81.82-16.96-17.17-34.13-26.7-57.23-31.58-18-3.8-29.67-3.8-47.7.22zm-368.8.22c-31.8 5.3-65.07 28.2-80.97 55.74-15.26 26.07-19.3 62.74-10.4 91.36 17.6 56.38 77.58 90.72 134.6 77.36 40.9-9.75 74.4-41.97 85-82.03 4.24-15.47 4.03-44.93-.2-59.35-8.7-29.04-30.73-57.02-55.32-70.37-20.14-10.8-51.3-16.3-72.7-12.7zm740.16 2.75c-20.77 5.5-36.88 14.84-52.35 30.52-44.5 45.15-44.1 115.94.85 160.24 24.6 24.38 53 35.18 87.1 33.28 68.67-4.03 119.12-68.68 105.13-134.8-4.88-23.1-13.56-39.85-29.67-56.8-29.46-31.37-69.95-43.02-111.07-32.42zM104.65 762.8c-35.6 6.36-68.9 31.8-83.93 64-30.73 66.34 7.42 144.34 78.85 160.66 15.47 3.6 46.63 1.7 62.53-4.03 31.8-11.23 57.86-37.3 69.52-69.1 6.78-19.08 7.84-51.5 2.12-70.37-11.23-36.24-37.3-64-72.28-76.1-16.32-5.7-41.12-7.83-56.8-5.08zm370.72 1.05c-52.14 11.87-87.96 53-90.93 104.92-1.9 34.34 8.9 62.95 33.28 87.33 24.6 24.6 52.14 34.76 89.02 33.07 23.32-1.27 39.85-6.36 57.02-17.8 33.5-22.26 51.08-55.1 51.08-95.17 0-50.23-29.46-92-76.3-108.3-18.45-6.58-45.16-8.28-63.17-4.04zm378.98-.85c-6.36 1.06-19.7 5.72-29.46 10.6-39.85 19.5-63.8 57.65-63.8 101.53 0 63.38 50.66 114.46 114.03 114.46 44.3 0 82.45-23.95 101.95-63.8 5.5-11.24 9.54-23.1 10.8-32.64 7-45.15-14.2-90.5-54.05-115.3-20.77-13.14-54.05-19.3-79.48-14.84z"/></svg>