<svg xmlns="http://www.w3.org/2000/svg" viewBox="0 0 1000 1000" fill="#fff"><path d="M242.72 461.78H426.2c20.22 0 36.72-16.44 36.72-36.72V241.58c0-20.22-16.44-36.72-36.72-36.72H242.72c-20.28 0-36.72 16.44-36.72 36.72v183.54c0 20.28 16.38 36.66 36.72 36.66zm331.08 0h183.54c20.22 0 36.72-16.44 36.72-36.72V241.58c0-20.22-16.44-36.72-36.72-36.72H573.8c-20.22 0-36.72 16.44-36.72 36.72v183.54c0 20.28 16.44 36.66 36.72 36.66zM206 758.42c0 20.22 16.44 36.72 36.72 36.72H426.2c20.22 0 36.72-16.44 36.72-36.72V574.94c0-20.22-16.44-36.72-36.72-36.72H242.72c-20.22 0-36.72 16.44-36.72 36.72v183.48zm331.08 0c0 20.22 16.44 36.72 36.72 36.72h183.54c20.22 0 36.72-16.44 36.72-36.72V574.94c0-20.22-16.44-36.72-36.72-36.72H573.8c-20.22 0-36.72 16.44-36.72 36.72v183.48z"/></svg>