<?xml version="1.0" encoding="utf-8"?>

<svg version="1.1" x="0px" y="0px" width="128" height="128" viewBox="-2.4 -2.4 24 24" enable-background="new 0 0 24 24" xml:space="preserve">

<g transform="translate(0, 0) scale(0.8)"><path fill="#fff" d="M18,8h-1L17,6c0,-2.76 -2.24,-5 -5,-5S7,3.24 7,6v2L6,8c-1.1,0 -2,0.9 -2,2v10c0,1.1 0.9,2 2,2h12c1.1,0 2,-0.9 2,-2L20,10c0,-1.1 -0.9,-2 -2,-2zM12,17c-1.1,0 -2,-0.9 -2,-2s0.9,-2 2,-2 2,0.9 2,2 -0.9,2 -2,2zM15.1,8L8.9,8L8.9,6c0,-1.71 1.39,-3.1 3.1,-3.1 1.71,0 3.1,1.39 3.1,3.1v2z"/></g>

</svg>