<svg xmlns="http://www.w3.org/2000/svg" width="508.33" height="508.36"><path d="M414.825 343.348l-12.148-12.34-36.45 37.024-12.15-12.343 24.3-24.686-12.148-12.34-24.3 24.686-12.15-12.343 30.373-30.854-12.148-12.34-30.373 30.854-115.9-117.733a61.22 61.22 0 0 0 12.019-36.543c0-16.316-6.254-31.657-17.614-43.196s-26.46-17.89-42.523-17.89-31.163 6.354-42.523 17.89c-23.445 23.816-23.445 62.576 0 86.397 11.36 11.535 26.46 17.893 42.523 17.893 13.156 0 25.63-4.328 35.97-12.2l188.797 191.783 12.148-12.34-12.15-12.342 36.45-37.024z" fill="#ff6666"/></svg>