<svg xmlns="http://www.w3.org/2000/svg" viewBox="0 0 1000 1000"><path fill="#fff" d="M17.45 283.14L10 290.58V499.4c0 227.8-.77 216 14.62 222.42 5.4 2.05 128 2.82 480 2.3l473.07-.77 6.15-7.18L990 709V289.3l-6.67-6.93-6.92-6.67H24.9l-7.44 7.44zM152.4 343.7v33.35l-70.55 1.54v-33.1c0-18.2.77-33.86 1.8-34.9 1.03-.77 16.93-1.28 35.15-1.03l33.6.77v33.35zm95.7.77l.77 34.12-70.8-1.54-.77-30.53c-.26-16.93 0-32.32.5-34.12 1.03-2.82 8.98-3.33 35.4-2.82l34.12.77.77 34.12zm95.43-.77v34.63h-69.26v-69.26h69.26v34.63zm95.95-30.53c2.05 5.13 2.05 55.93 0 61.06-1.28 3.6-6.93 4.1-35.92 4.1h-34.38V345.5c0-18.2.77-33.86 1.8-34.63.77-1.03 16.42-1.8 34.38-1.8 27.2 0 32.84.76 34.12 4.1zm95.18 30.53v33.35h-69.27l-.77-30.53c-.26-16.93 0-32.32.5-34.12 1.03-2.82 8.98-3.33 35.4-2.82l34.12.77v33.35zm96.2 0v34.63h-69.26v-69.26h69.26v34.63zm94.92 0v34.63H656.5v-32.84c0-18.2.77-33.86 1.8-34.63.77-1.03 16.4-1.8 34.63-1.8h32.83v34.64zm192.4 0v34.63l-82.6-.5-82.87-.77-.77-30.53c-.26-16.93 0-32.32.5-34.12 1.03-2.57 18.2-3.33 83.63-3.33h82.1v34.63zM247.3 439.9v34.64H83.12l-.77-31.8c-.26-17.7 0-33.6.5-35.4 1.03-2.82 17.2-3.33 82.86-2.82l81.58.77v34.62zm94.92 0v34.64h-66.7l-.77-31.8c-.26-17.7 0-33.6.5-35.4 1.03-2.82 8.72-3.33 34.12-2.82l32.84.77v34.62zm97.23-31.8c.77 2.3 1.54 16.93 1.54 33.1 0 21.55-1.03 29.5-3.6 31.8-2.3 2.05-14.1 2.82-35.15 2.3l-31.8-.77-.77-31.8c-.26-17.7 0-33.6.5-35.4 1.03-2.57 9.75-3.33 34.63-3.33 27.7 0 33.36.77 34.64 4.1zm95.18 31.8v34.64l-31.8.77c-21.04.5-32.84-.26-35.15-2.3-2.82-2.3-3.6-10.52-3.6-34.38 0-17.2.77-32.07 1.8-33.1 1.03-.77 16.93-1.28 35.15-1.03l33.6.77v34.63zm94.92 0v34.64h-66.7l-.77-31.8c-.26-17.7 0-33.6.5-35.4 1.03-2.82 8.72-3.33 34.12-2.82l32.83.77v34.62zm95.7-.77l-.77 35.4h-66.7l-.77-31.8c-.26-17.7 0-33.6.5-35.4 1.03-2.57 9.75-3.33 34.9-3.33h33.6l-.77 35.14zm96.7.77v34.64l-29.5.77c-44.38 1.03-41.05 3.85-41.05-35.15 0-17.96.77-33.6 1.8-34.63 1.02-.77 16.93-1.28 35.14-1.03l33.6.77v34.63zm94.92 0v34.64h-66.7l-.77-31.8c-.26-17.7 0-33.6.5-35.4 1.03-2.82 8.72-3.33 34.12-2.82l32.83.77v34.62zm-766.54 62.1c3.85 3.08 4.87 60.03 1.28 65.67-1.8 2.3-10.52 3.08-35.4 2.57l-33.1-.77-.77-33.1c-.52-21.56.25-33.87 2.04-34.9 4.62-2.82 62.34-2.56 65.94.52zm95.43-.52c2.05 1.03 2.82 12.06 2.3 34.9l-.77 33.1h-69.26l-.77-31.8c-.5-19.75.26-32.84 2.05-34.9 3.07-3.6 61.05-4.87 66.44-1.28zm95.18 0c1.8 1.03 2.57 14.1 2.05 34.9l-.77 33.1-67.98 1.54v-34.63c0-25.14.77-34.9 3.33-35.66 4.62-1.8 60.3-1.02 63.37.77zm96.97.77c3.6 2.82 4.36 59.77 1.03 65.42-1.8 2.3-10.52 3.08-35.4 2.57l-33.1-.77-.77-33.1c-.5-24.88.26-33.86 2.57-35.4 4.35-2.83 61.56-1.8 65.66 1.27zm97.5-1.02c.26.26.26 15.65 0 34.12l-.77 34.12h-69.27V536.1c0-33.1 0-33.1 6.4-35.15 4.62-1.28 56.2-1.03 63.63.26zm85.94-.77l9.75 1.8-1.54 67.22-67.98 1.54v-69.27l9.75-1.03c16.67-1.8 40-1.8 50.02-.25zm99.53-.26c4.37 1.54 4.88 4.36 4.88 36.17v34.63l-67.98-1.54-.77-33.1c-.26-18.73.26-33.86 1.8-34.63 3.34-2.05 56.2-3.34 62.08-1.54zm194.47 1.03c2.05 1.28 2.82 12.06 2.3 35.15l-.77 33.1H752.7l-.77-31.8c-.52-18.98.26-32.84 2.05-34.9 1.8-2.3 21.8-3.08 80.56-3.08 42.84-.26 79.27.5 80.8 1.54zM152.4 631.02v33.35l-70.55 1.54v-33.1c0-18.22.77-33.86 1.8-34.9 1.03-.77 16.93-1.28 35.15-1.02l33.6.77v33.34zm669.57 0v33.35H178.04l-.77-30.53c-.26-16.93 0-32.32.5-34.12 1.03-2.82 59.52-3.33 322.73-2.82l321.45.77v33.35zm96.2 0v34.63H848.9V596.4h69.26v34.63z"/></svg>