<svg xmlns="http://www.w3.org/2000/svg" viewBox="0 0 1000 1000" fill="#fff"><path d="M360.278 383.902c-3.312 1.758-5.676 4.797-6.7 8.65-.474 1.7-.675 18.312-.54 47.436l.204 44.87 2.028 3.246c1.35 2.163 3.042 3.783 5 4.866l2.973 1.554 275.298-.34 2.703-1.893c1.488-1.014 3.378-3.042 4.2-4.596l1.554-2.703v-93.32l-1.96-3.108c-1.215-1.96-2.973-3.648-4.866-4.662l-2.973-1.554H363.25l-2.973 1.554zm260.907 54.534v30.408h-241.92v-60.816h241.92v30.408zM360.212 522.23c-3.243 1.758-5.676 4.932-6.62 8.784-.54 2.163-.675 16.353-.54 47.64l.204 44.598 1.623 2.838c1.824 3.108 4.056 5 7.434 6.15 1.758.6 36.018.813 138.192.813l138.597-1.284c3.177-1.485 6.015-4.323 7.095-7.164.54-1.488.8-15.003.744-48.114 0-41.83-.066-46.3-1.15-48.315-1.554-3.108-2.907-4.527-5.8-6.015-2.433-1.218-6.42-1.284-139.88-1.284l-139.887 1.353zm260.973 54.735v30.408h-241.92v-60.816h241.92v30.408z"/></svg>