<?xml version="1.0" encoding="utf-8"?>
<!-- Svg Vector Icons : http://www.onlinewebfonts.com/icon -->
<!DOCTYPE svg PUBLIC "-//W3C//DTD SVG 1.1//EN" "http://www.w3.org/Graphics/SVG/1.1/DTD/svg11.dtd">
<svg version="1.1" xmlns="http://www.w3.org/2000/svg" xmlns:xlink="http://www.w3.org/1999/xlink" x="0px" y="0px" viewBox="0 0 1000 1000" enable-background="new 0 0 1000 1000" xml:space="preserve">
<metadata> Svg Vector Icons : http://www.onlinewebfonts.com/icon </metadata>
<g transform="translate(0, 0) scale(1.0)"><path fill="#ffffff" d="M346.9,10H163.1c-16.9,0-30.6,13.7-30.6,30.6v918.8c0,16.9,13.7,30.6,30.6,30.6h183.8c16.9,0,30.6-13.7,30.6-30.6V40.6C377.5,23.7,363.8,10,346.9,10z M836.9,10H653.1c-16.9,0-30.6,13.7-30.6,30.6v918.8c0,16.9,13.7,30.6,30.6,30.6h183.8c16.9,0,30.6-13.7,30.6-30.6V40.6C867.5,23.7,853.8,10,836.9,10z"/></g>
</svg>