<svg xmlns="http://www.w3.org/2000/svg" viewBox="0 0 1000 1000"><path fill="#fff" d="M697.22 323.42c49.08 49.92 79.5 118.32 79.5 193.92C776.72 670.1 652.82 794 500 794S223.28 670.1 223.28 517.28c0-76.56 31.08-145.8 81.36-195.9l.48.48c6.24-6.12 14.7-9.9 24.12-9.9 19.14 0 34.56 15.48 34.56 34.56 0 10.26-4.68 19.2-11.7 25.5-36.78 37.44-59.64 88.62-59.64 145.26 0 114.6 92.94 207.54 207.54 207.54s207.54-92.88 207.54-207.54c0-57.42-23.34-109.38-61.02-146.94l.3-.3c-5.82-6.18-9.54-14.4-9.54-23.58 0-19.08 15.48-34.56 34.56-34.56 9.12 0 17.34 3.72 23.52 9.48v-.06c.06.06.12.06.12.12.66.66 1.14 1.32 1.74 1.98zM517.28 517.28h-34.56c-9.54 0-17.28-7.74-17.28-17.28V223.28c0-9.54 7.74-17.28 17.28-17.28h34.56c9.54 0 17.28 7.74 17.28 17.28V500c0 9.54-7.68 17.28-17.28 17.28z"/></svg>