<svg xmlns="http://www.w3.org/2000/svg" width="508.33" height="508.36"><path d="M438.227 254.18c0-53.793-23.8-102.193-61.546-135.476-.503-.497-1.007-.994-1.582-1.348-32.355-27.9-74.703-44.85-120.934-44.85-46.303 0-88.723 17.032-121.15 44.993-.36.284-.79.64-1.078.994-37.89 33.284-61.833 81.754-61.833 135.69 0 53.722 23.8 102.122 61.474 135.405 0 0 0 .07.072.07.503.568 1.007.994 1.582 1.42 32.355 27.9 74.703 44.78 120.934 44.78 46.303 0 88.723-16.96 121.078-44.993.43-.284.79-.64 1.222-1.065 37.89-33.284 61.76-81.754 61.76-135.618zM369.78 372.34c-9.49-7.523-19.628-14.122-30.27-19.587 9.203-25.974 14.74-56.632 15.602-89.915h65.356c-2.3 42.864-21.282 81.47-50.69 109.502zm-106.842-22.78c18.622.994 36.812 4.968 53.924 11.852-13.59 30.587-32.714 51.593-53.924 56.206V349.56zm0-17.316v-69.406h74.63c-.863 30.16-6.04 58.477-14.38 82.464-19.053-7.664-39.4-12.064-60.25-13.058zm0-86.722v-69.406c20.85-.994 41.198-5.393 60.25-13.058 8.34 23.987 13.517 52.303 14.38 82.464h-74.63zm0-86.722V90.743c21.2 4.613 40.335 25.548 53.924 56.206-17.112 6.813-35.302 10.858-53.924 11.852zm43.787-60.606c18.12 5.96 34.87 14.903 49.6 26.258-7.334 5.677-15.17 10.645-23.295 14.974-7.334-16.393-16.25-30.374-26.315-41.232zm-61.33-7.452V158.8c-18.622-.994-36.884-4.968-53.924-11.852 13.59-30.587 32.714-51.593 53.924-56.206zm-70.102 48.683c-8.125-4.33-15.9-9.297-23.295-14.974 14.74-11.355 31.492-20.297 49.6-26.258-10.066 10.858-18.98 24.838-26.315 41.232zm70.102 36.7v69.406h-74.63c.863-30.16 6.04-58.477 14.38-82.464 19.053 7.664 39.4 12.064 60.25 13.058zm0 86.722v69.406c-20.85.994-41.198 5.393-60.25 13.058-8.34-23.987-13.517-52.303-14.38-82.464h74.63zm0 86.722v68.057c-21.2-4.613-40.335-25.548-53.924-56.206 17.112-6.813 35.302-10.858 53.924-11.852zm-43.715 60.606c-18.12-5.96-34.87-14.903-49.6-26.258 7.334-5.677 15.17-10.645 23.295-14.974 7.262 16.393 16.177 30.374 26.315 41.232zm131.36-41.232c8.125 4.33 15.9 9.297 23.295 14.974-14.74 11.355-31.492 20.297-49.6 26.258 10.066-10.858 18.98-24.838 26.315-41.232zm87.43-123.412H355.11c-.863-33.284-6.4-63.94-15.602-89.915 10.64-5.535 20.78-12.064 30.27-19.587 29.407 28.032 48.388 66.638 50.69 109.502zM138.55 136.02c9.49 7.523 19.628 14.122 30.27 19.587-9.203 25.974-14.74 56.632-15.602 89.915H87.862c2.3-42.864 21.282-81.47 50.69-109.502zm-50.69 126.818h65.356c.863 33.284 6.4 63.94 15.602 89.915-10.64 5.535-20.78 12.064-30.27 19.587-29.407-28.032-48.388-66.638-50.69-109.502z" fill="#9966ff"/></svg>