<svg xmlns="http://www.w3.org/2000/svg" width="508.33" height="508.36"><path fill-rule="evenodd" fill="#99ccff" d="M130.9 141.12H298.15v.22c56.836 2.334 102.207 46.788 102.207 101.454 0 54.657-45.37 99.12-102.207 101.454v.22h-145.3l30.606-29.123a8.56 8.56 0 0 0 0-12.502c-3.614-3.44-9.524-3.44-13.138 0l-45.993 43.764c-1.868 1.777-2.722 4.13-2.667 6.472-.065 2.343.8 4.695 2.667 6.472l45.993 43.764c3.614 3.44 9.524 3.44 13.138 0a8.56 8.56 0 0 0 0-12.502L153.33 362.16H298.15c.548 0 1.013-.212 1.533-.3 66.388-3.094 119.257-55.134 119.257-119.066 0-65.92-56.158-119.357-125.436-119.357-1.254 0-2.472.14-3.726.177-.316-.035-.595-.177-.92-.177H130.9c-5.1 0-9.292 3.98-9.292 8.84s4.18 8.84 9.292 8.84z"/></svg>