<svg xmlns="http://www.w3.org/2000/svg" viewBox="0 0 600 200" transform="translate(20 0)  scale(1.7 1)">

<path fill="#38BF73" d="M0,129.82v70.72h95.17c1.6,0,2.2,-2.157,0.84,-3.03l-96,-67.69zm4.34,8.47l81.95,57.78h-81.95v-57.78z"/>

<path fill="#25B45C" d="M0,55.21v102.7h128.56c2.16,0,2.97,-2.91,1.14,-4.09l-129.7,-98.61zm4.34,8.85l117.56,89.38h-117.56v-89.38z"/>

<path fill="#38BF73" d="M1.54,0c-0.81,0,-1.55,0.66,-1.55,1.59v106.02h164.7c2.16,0,2.97,-2.91,1.14,-4.09l-163.48,-103.29c-0.26,-0.16,-0.54,-0.24,-0.81,-0.24m2.79,6.73l152.6,96.41h-152.6v-96.41z"/>

<path fill="#3DDC84" d="M324.59,199h-160.59v-115.31h0.14l161.98,109.46c2.49,1.68,1.39,5.85,-1.54,5.85z"/>

<path fill="#25B45C" d="M206.7,122h118.38c2.94,0,4.04,-4.48,1.54,-6.28l-159.45,-115.37c-1.32,-0.95,-3.03,0.15,-3.03,1.95l-0.14,119.7z"/>

</svg>