<svg width="159.99999219086092" height="139.9999931670033" xmlns="http://www.w3.org/2000/svg">

 <g>
  <title>background</title>
  <rect height="142" width="162" y="-1" x="-1" fill="none" id="canvas_background"/>
 </g>
 <g>
  <title>Layer 1</title>
  <path d="m145.158112,14.098471c4.62413,0 8.407486,3.870108 8.407486,8.600235l0,94.602571c0,4.730148 -3.783356,8.600235 -8.407486,8.600235l-130.316236,0c-4.624125,0 -8.4075,-3.870087 -8.4075,-8.600235l0,-94.602571c0,-4.730127 3.783375,-8.600235 8.4075,-8.600235l130.316236,0m0,-5.733488l-130.316236,0c-7.706875,0 -14.0125,6.450175 -14.0125,14.333723l0,94.602571c0,7.883553 6.305625,14.333748 14.0125,14.333748l130.316236,0c7.706879,0 14.012512,-6.450195 14.012512,-14.333748l0,-94.602571c0,-7.883548 -6.305634,-14.333723 -14.012512,-14.333723l0,0z" fill="#314355" id="svg_1"/>
  <path d="m139.613739,31.62274l0,76.754519l-119.227476,0l0,-76.754519l119.227476,0m2.74086,-3.009981l-124.709198,0l0,82.774479l124.709198,0l0,-82.774479l0,0z" stroke-width="3" fill="#0082ff" id="svg_4"/>
 </g>
</svg>