<svg xmlns="http://www.w3.org/2000/svg" viewBox="0 0 1000 1000"><path fill="#fff" d="M500 603.5c28.5 0 52.92-10.14 73.14-30.36S603.5 528.5 603.5 500s-10.14-52.92-30.36-73.14S528.5 396.5 500 396.5s-52.92 10.14-73.14 30.36S396.5 471.5 396.5 500s10.14 52.92 30.36 73.14S471.5 603.5 500 603.5zm219.48-74.52l62.1 48.3c6.42 4.62 7.38 11.04 2.76 19.32L725 698.78c-3.66 6.42-9.66 8.28-17.94 5.52l-73.14-28.98c-19.32 13.8-35.88 23.46-49.68 28.98l-11.04 77.28c-1.86 8.28-6.42 12.42-13.8 12.42H440.66c-7.38 0-11.94-4.14-13.8-12.42l-11.04-77.28c-17.46-7.38-34.02-17.04-49.68-28.98L293 704.3c-8.28 2.76-14.28.9-17.94-5.52l-59.4-102.18c-4.62-8.28-3.66-14.7 2.76-19.32l62.1-48.3c-.9-6.42-1.38-16.08-1.38-28.98s.48-22.56 1.38-28.98l-62.1-48.3c-6.42-4.62-7.38-11.04-2.76-19.32L275 301.22c3.66-6.42 9.66-8.28 17.94-5.52l73.14 28.98c19.32-13.8 35.88-23.46 49.68-28.98l11.04-77.28c1.86-8.28 6.42-12.42 13.8-12.42h118.68c7.38 0 11.94 4.14 13.8 12.42l11.04 77.28c17.46 7.38 34.02 17.04 49.68 28.98l73.14-28.98c8.28-2.76 14.28-.9 17.94 5.52l59.46 102.18c4.62 8.28 3.66 14.7-2.76 19.32l-62.1 48.3c.9 6.42 1.38 16.08 1.38 28.98s-.48 22.56-1.38 28.98z"/></svg>