<svg xmlns="http://www.w3.org/2000/svg" width="120" height="120"><circle stroke-width="2" stroke="#fff" fill="none" r="56.64" cy="60" cx="60"/><path d="M68.835 39.256a.761.761 0 1 0-.62 1.39C75.495 43.896 80.2 51.134 80.2 59.09c0 11.138-9.062 20.2-20.2 20.2s-20.2-9.062-20.2-20.2c0-7.955 4.704-15.194 11.985-18.443a.761.761 0 1 0-.62-1.39 21.75 21.75 0 0 0-12.887 19.832C38.278 71.066 48.022 80.8 60 80.8s21.722-9.744 21.722-21.722a21.75 21.75 0 0 0-12.887-19.832zM60 63.975a.76.76 0 0 0 .761-.761V39.95a.761.761 0 1 0-1.522 0v23.263a.76.76 0 0 0 .761.761z" fill="#fff"/></svg>