<svg xmlns="http://www.w3.org/2000/svg" width="508.33" height="508.36" fill="#fff"><path d="M366.355 327.865a133.79 133.79 0 0 1-16.523 19.518c-6.126 5.972-12.87 11.388-20.038 16.105a136.24 136.24 0 0 1-22.976 12.15 137.3 137.3 0 0 1-25.373 7.677 140.99 140.99 0 0 1-54.563 0 136.89 136.89 0 0 1-25.378-7.677 136.43 136.43 0 0 1-22.976-12.15 135.85 135.85 0 0 1-20.035-16.105c-6.12-5.963-11.682-12.53-16.526-19.518a130.6 130.6 0 0 1-12.47-22.39 128.59 128.59 0 0 1-7.882-24.725c-.944-4.502-1.65-9.075-2.106-13.683h27.305v-25.8h-54.4v12.895a154.78 154.78 0 0 0 3.285 31.75c2.126 10.127 5.3 20.088 9.432 29.602a156.49 156.49 0 0 0 14.914 26.78 159.7 159.7 0 0 0 19.743 23.315 161.94 161.94 0 0 0 23.931 19.24 163.41 163.41 0 0 0 27.484 14.532 165.06 165.06 0 0 0 30.384 9.2 167.15 167.15 0 0 0 32.584 3.201c10.96 0 21.923-1.077 32.587-3.2a164.23 164.23 0 0 0 30.378-9.19 163.05 163.05 0 0 0 27.481-14.532 162.25 162.25 0 0 0 23.937-19.24c7.317-7.135 13.96-14.98 19.74-23.315a156.24 156.24 0 0 0 14.917-26.779l-24.38-10.044a130.71 130.71 0 0 1-12.473 22.384zm46.28-105.445c-2.126-10.124-5.3-20.085-9.43-29.6-4.053-9.34-9.07-18.352-14.914-26.78a159.82 159.82 0 0 0-19.746-23.318c-7.323-7.138-15.38-13.6-23.93-19.237a163.22 163.22 0 0 0-27.484-14.535c-9.767-4.026-20-7.115-30.378-9.2-21.3-4.247-43.87-4.247-65.174 0a164.19 164.19 0 0 0-30.381 9.19 163.3 163.3 0 0 0-27.484 14.535c-8.564 5.64-16.614 12.113-23.93 19.237a159.76 159.76 0 0 0-19.75 23.32c-5.844 8.434-10.86 17.44-14.9 26.777l24.38 10.044a130.92 130.92 0 0 1 12.467-22.386 133.61 133.61 0 0 1 16.532-19.52 135.25 135.25 0 0 1 20.032-16.102c7.23-4.76 14.96-8.85 22.976-12.153a137.1 137.1 0 0 1 25.378-7.674c17.817-3.553 36.73-3.553 54.56 0 8.68 1.73 17.217 4.313 25.376 7.674 8 3.3 15.74 7.4 22.98 12.153 7.162 4.7 13.902 10.13 20.032 16.102a133.43 133.43 0 0 1 16.529 19.518c4.888 7.05 9.085 14.58 12.47 22.4a128.91 128.91 0 0 1 7.879 24.725c.944 4.505 1.65 9.075 2.1 13.683H361.52v25.8h54.4V254.17c0-10.68-1.106-21.363-3.288-31.748z"/></svg>