<svg xmlns="http://www.w3.org/2000/svg" viewBox="0 0 1000 1000" fill="#fff"><path d="M526.08 688.24V290.96c0-15.68-10.4-26.08-26.08-26.08s-26.08 13.12-26.08 26.08v397.28c-31.44 10.56-52.24 39.2-52.24 73.12 0 44.4 34 78.48 78.48 78.48 44.4 0 78.4-34 78.4-78.48-.08-33.92-21.04-62.56-52.48-73.12zm52.4-31.28V186.48c0-44.4-34-78.48-78.48-78.48-44.4 0-78.48 36.64-78.48 78.48v470.4c-31.44 23.52-52.24 62.72-52.24 104.56 0 73.12 57.52 130.64 130.64 130.64s130.64-57.52 130.64-130.64c.08-41.92-20.8-80.96-52.08-104.48zM500 866c-57.52 0-104.56-47.04-104.56-104.56 0-39.2 20.88-73.12 52.24-91.44V186.48c0-28.72 23.52-52.24 52.24-52.24s52.24 23.52 52.24 52.24V670c31.44 18.32 52.24 52.24 52.24 91.44C604.56 818.88 557.52 866 500 866z"/></svg>