<svg xmlns="http://www.w3.org/2000/svg" viewBox="0 0 1000 1000" fill="#fff"><path d="M137.897 78.393c-16.87 14.605-30.465 30.24-42.276 48.986-33.785 53.572-41.937 119.094-22.013 180.575 10.807 33.898 38.664 73.283 68.8 97.254 38.262 30.456 94.165 48.06 143.178 45.306 6.76-.5 12.77-1.047 13.323-1.366.543-.313-3.194-7.644-8.358-16.6l-9.344-15.766-16.073-.45c-40.455-.967-85.02-20-115.465-49.138-20.944-20.26-41.173-55.297-48.356-83.755-4.44-17.4-5.832-46.754-3.36-66.916 6.967-55.363 43.404-107.3 93.52-132.58 25-12.732 41.244-17.487 68.304-19.48 26.778-2.085 56.123 2.388 78.865 11.88 24.222 10.34 33.73 16.294 52.55 32.432 15.35 13.518 16.553 14.767 32.883 43.05 14.75 25.55 17.26 31.15 20.554 45.303 9.705 43.78 4.4 87.242-15.145 125.04l-8.577 15.9 8.85 15.328c6.424 11.127 9.288 14.833 11.117 13.777 1.277-.737 6.658-8.7 11.863-17.798 24.145-41.185 33.397-82.053 29.455-128.92-3.008-34.273-7.502-47.974-28.573-84.47s-30.68-47.243-58.866-66.98c-21.676-15.213-38.2-23.195-63.954-30.713-37.2-10.892-77.87-10.993-116.7-.265C192.942 43.945 154.142 64.4 137.9 78.4zm45.588 61.27c-20.892 19.848-32.528 38.48-39.516 63.447-10.34 36.872-5.98 71.813 12.775 104.298 17.908 31.018 43.66 51.18 78.72 61.348l21.507 6.077-11.408-20.176c-11.38-19.7-11.874-20.148-27.312-30.453-19.27-12.716-30.462-26.208-38.518-45.64-15.755-39.08-5.705-84.043 24.982-112.227 29.072-26.756 70.537-34.158 106.355-19.3 20.738 8.947 33.066 19.345 45.96 39.146 12.2 19 17.55 37.55 16.67 57.517-.365 11.16.105 12.832 10.533 30.894 6.1 10.584 11.794 18.734 12.7 18.2.915-.528 3.82-10.234 6.44-21.716 8.33-35.712 3.86-66.22-14.36-97.78-19.277-33.4-43.722-52.123-80.557-62-25.8-6.76-39.232-7.275-63.68-2.407-20.218 4.14-47.262 17.557-61.288 30.774zm52.48 76.993c-8.45 10.226-12.295 21.693-12.13 35.467l.295 12.722L512 767.7l-60.23-50.378c-33.108-27.843-64.32-52.4-69.264-54.65s-15.07-4.2-22.34-4.134c-11.132.1-15.308 1.293-25.158 6.98-6.573 3.795-14.514 9.84-17.97 13.537-8.167 8.602-14.637 28.15-13.67 41.222 1.66 21.422 2.873 22.665 111.996 120.238l110.98 96.984c16.78 12.2 43.75 24.366 68.214 30.92 67.348 18.046 148.194 2.997 226.47-42.197 74.267-42.878 117.05-116.24 117.442-201.122.153-54.096-22.958-132.472-61.555-207.75-26.734-52.202-93.722-153.906-107.085-162.728-25.945-17.13-58.4-8.86-74.654 19.02-6.326 10.956-9.297 30.67-5.817 38.4 1.084 2.296-4.4-5.965-12.414-18.135-15.423-24.184-20.805-28.863-37.517-33.808-15.4-4.744-26.432-3.233-41.95 5.726-11.965 6.667-14.652 9.183-20.4 18.592-7.03 11.846-9.5 23.985-7.23 36.78 1.423 7.943 1.027 7.676-8.768-9.3-15.878-27.084-29.855-36.53-52.66-36.014-33.082.847-60.107 28.618-56.004 57.636l1.786 12.356-67.962-116.46c-66.383-113.726-68.072-116.65-76.542-122.455-9.756-6.777-23.807-11.315-34.9-10.747-10.005.403-32.057 11.928-38.82 20.456z"/></svg>